<svg width="307" height="53" viewBox="0 0 307 53" fill="none" xmlns="http://www.w3.org/2000/svg">
<path d="M0.00256348 45.5333H3.85896V0.027771H0.00256348V45.5333Z" fill="#FAFAFA"/>
<path d="M69.7286 8.51285C72.0937 7.48448 74.6136 6.97028 77.2873 6.97028C80.0123 6.97028 82.5576 7.48448 84.9229 8.51285C87.2367 9.54131 89.2673 10.9553 91.0155 12.755C92.7123 14.5031 94.0753 16.5343 95.1037 18.8482C96.0806 21.162 96.5687 23.63 96.5687 26.2524C96.5687 28.9774 96.0806 31.5223 95.1037 33.8876C94.0752 36.2014 92.7123 38.2326 91.0155 39.9808C89.2674 41.6776 87.2367 43.04 84.9229 44.0684C82.5577 45.0454 80.0124 45.534 77.2871 45.534C74.6135 45.534 72.0937 45.0454 69.7284 44.0684C62.5382 40.8439 50.1139 26.5584 49.8523 26.257L49.8461 26.2507C49.8461 26.2507 38.8637 14.4673 33.3954 12.0592C31.5443 11.2365 29.5648 10.8251 27.4567 10.8251C25.3484 10.8251 23.3434 11.2365 21.4409 12.0592C19.5898 12.8819 17.97 13.9875 16.5817 15.3758C15.1933 16.7642 14.0876 18.384 13.265 20.2351C12.4422 22.1377 12.0309 24.1428 12.0309 26.2509C12.0309 28.359 12.4422 30.3391 13.265 32.1901C14.0877 34.0927 15.1933 35.738 16.5817 37.1263C17.97 38.5146 19.5898 39.6198 21.4409 40.4424C23.3435 41.2652 25.3486 41.6765 27.4567 41.6765C29.5648 41.6765 31.5443 41.2651 33.3954 40.4424C36.618 38.9867 41.2383 34.8264 44.8144 31.3448L47.4556 34.0264C43.3339 38.0802 38.38 42.4989 35.0154 43.9907C32.6503 45.0191 30.1305 45.5333 27.4567 45.5333C24.7314 45.5333 22.1865 45.0189 19.8212 43.9905C17.5073 42.962 15.4767 41.5479 13.7284 39.7483C12.0316 38 10.6686 35.9688 9.64028 33.655C8.66331 31.3412 8.17523 28.8731 8.17523 26.2507C8.17523 23.5256 8.66333 20.9807 9.64028 18.6154C10.6686 16.3016 12.0316 14.2703 13.7284 12.5221C15.4767 10.8253 17.5073 9.46289 19.8212 8.43452C22.1865 7.45758 24.7319 6.96898 27.457 6.96898C30.1307 6.96898 32.6504 7.45756 35.0158 8.43452C42.2047 11.6586 54.6269 25.9413 54.8912 26.2458L54.8975 26.2521C54.8975 26.2521 65.88 38.0356 71.3485 40.4438C73.1995 41.2665 75.1792 41.6779 77.2871 41.6779C79.3951 41.6779 81.4003 41.2665 83.3028 40.4438C85.1538 39.6212 86.7737 38.5155 88.162 37.1272C89.5502 35.7389 90.6558 34.1191 91.4786 32.2681C92.3013 30.3657 92.7126 28.3606 92.7126 26.2524C92.7126 24.1442 92.3013 22.1643 91.4786 20.3132C90.6559 18.4108 89.5503 16.7654 88.162 15.377C86.7737 13.9888 85.1539 12.8837 83.3028 12.061C81.4004 11.2383 79.3953 10.8269 77.2871 10.8269C75.1792 10.8269 73.1995 11.2383 71.3485 12.061C68.1258 13.517 63.5056 17.6774 59.9294 21.1588L57.2882 18.4772C61.4099 14.4235 66.3641 10.0047 69.7286 8.51285Z" fill="#FAFAFA"/>
<path fill-rule="evenodd" clip-rule="evenodd" d="M137.906 33.887C138.934 31.5217 139.449 28.9765 139.449 26.2513C139.449 23.5775 138.934 21.058 137.906 18.6927C136.878 16.3275 135.464 14.2964 133.664 12.5996C131.916 10.8514 129.885 9.4888 127.571 8.51185C125.257 7.48347 122.789 6.96929 120.167 6.96929C117.441 6.96929 114.896 7.48347 112.531 8.51185C110.217 9.4888 108.186 10.8514 106.438 12.5996C104.741 14.2964 103.378 16.3275 102.35 18.6927C101.373 21.058 100.885 23.5775 100.885 26.2513V52.4748H104.741V37.8205C106.489 40.1343 108.675 42.0111 111.297 43.4508C113.919 44.8391 116.876 45.5333 120.167 45.5333C122.789 45.5333 125.257 45.0448 127.571 44.0679C129.885 43.0395 131.916 41.6769 133.664 39.9801C135.464 38.2318 136.878 36.2008 137.906 33.887ZM134.358 20.3124C135.181 22.1635 135.592 24.1431 135.592 26.2513C135.592 28.3595 135.181 30.3648 134.358 32.2673C133.535 34.1183 132.43 35.738 131.042 37.1263C129.653 38.5146 128.008 39.6201 126.105 40.4428C124.254 41.2655 122.275 41.6769 120.167 41.6769C118.058 41.6769 116.053 41.2655 114.151 40.4428C112.3 39.6201 110.68 38.5146 109.292 37.1263C107.903 35.738 106.798 34.1183 105.975 32.2673C105.152 30.3648 104.741 28.3595 104.741 26.2513C104.741 24.1431 105.152 22.1635 105.975 20.3124C106.798 18.4099 107.903 16.7645 109.292 15.3762C110.68 13.9879 112.3 12.8824 114.151 12.0597C116.053 11.237 118.058 10.8257 120.167 10.8257C122.275 10.8257 124.254 11.237 126.105 12.0597C128.008 12.8824 129.653 13.9879 131.042 15.3762C132.43 16.7645 133.535 18.4099 134.358 20.3124Z" fill="#FAFAFA"/>
<path fill-rule="evenodd" clip-rule="evenodd" d="M163.048 6.96929C165.722 6.96929 168.241 7.48348 170.606 8.51185C172.972 9.4888 175.003 10.8514 176.7 12.5996C178.448 14.2964 179.81 16.3275 180.787 18.6928C181.816 21.058 182.33 23.5775 182.33 26.2513C182.33 28.9765 181.816 31.5217 180.787 33.887C179.81 36.2008 178.448 38.2318 176.7 39.9801C175.003 41.6769 172.972 43.0395 170.606 44.0679C168.241 45.0448 165.722 45.5333 163.048 45.5333C160.323 45.5333 157.777 45.0448 155.412 44.0679C153.098 43.0395 151.067 41.6769 149.319 39.9801C147.622 38.2318 146.26 36.2008 145.231 33.887C144.254 31.5217 143.766 28.9765 143.766 26.2513V0.027771H147.622V14.6821C149.37 12.3683 151.607 10.5172 154.332 9.12888C157.058 7.68915 159.963 6.96929 163.048 6.96929ZM163.048 41.6769C165.156 41.6769 167.136 41.2655 168.987 40.4428C170.889 39.6201 172.535 38.5146 173.923 37.1263C175.311 35.738 176.417 34.1183 177.239 32.2673C178.062 30.3648 178.473 28.3595 178.473 26.2513C178.473 24.1431 178.062 22.1635 177.239 20.3124C176.417 18.4099 175.311 16.7645 173.923 15.3762C172.535 13.9879 170.889 12.8824 168.987 12.0597C167.136 11.237 165.156 10.8257 163.048 10.8257C160.94 10.8257 158.934 11.237 157.032 12.0597C155.181 12.8824 153.561 13.9879 152.173 15.3762C150.785 16.7645 149.679 18.4099 148.856 20.3124C148.034 22.1635 147.622 24.1431 147.622 26.2513C147.622 28.3595 148.034 30.3648 148.856 32.2673C149.679 34.1183 150.785 35.738 152.173 37.1263C153.561 38.5146 155.181 39.6201 157.032 40.4428C158.934 41.2655 160.94 41.6769 163.048 41.6769Z" fill="#FAFAFA"/>
<path fill-rule="evenodd" clip-rule="evenodd" d="M213.478 8.51185C211.113 7.48347 208.593 6.96929 205.919 6.96929C203.194 6.96929 200.649 7.48347 198.284 8.51185C195.97 9.4888 193.939 10.8514 192.191 12.5996C190.494 14.2964 189.131 16.3275 188.103 18.6927C187.126 21.058 186.637 23.5775 186.637 26.2513C186.637 28.9765 187.126 31.5217 188.103 33.887C189.131 36.2008 190.494 38.2318 192.191 39.9801C193.939 41.6769 195.97 43.0395 198.284 44.0679C200.649 45.0448 203.194 45.5333 205.919 45.5333C209.005 45.5333 211.91 44.8391 214.635 43.4508C217.36 42.0111 219.597 40.1343 221.345 37.8205V45.5333H225.201V26.2513C225.201 23.5775 224.687 21.058 223.659 18.6927C222.682 16.3275 221.319 14.2964 219.571 12.5996C217.874 10.8514 215.843 9.4888 213.478 8.51185ZM211.858 40.4428C210.007 41.2655 208.028 41.6769 205.919 41.6769C203.811 41.6769 201.806 41.2655 199.903 40.4428C198.052 39.6201 196.433 38.5146 195.044 37.1263C193.656 35.738 192.551 34.1183 191.728 32.2673C190.905 30.3648 190.494 28.3595 190.494 26.2513C190.494 24.1431 190.905 22.1635 191.728 20.3124C192.551 18.4099 193.656 16.7645 195.044 15.3762C196.433 13.9879 198.052 12.8824 199.903 12.0597C201.806 11.237 203.811 10.8257 205.919 10.8257C208.028 10.8257 210.007 11.237 211.858 12.0597C213.761 12.8824 215.406 13.9879 216.795 15.3762C218.183 16.7645 219.288 18.4099 220.111 20.3124C220.934 22.1635 221.345 24.1431 221.345 26.2513C221.345 28.3595 220.934 30.3648 220.111 32.2673C219.288 34.1183 218.183 35.738 216.795 37.1263C215.406 38.5146 213.761 39.6201 211.858 40.4428Z" fill="#FAFAFA"/>
<path d="M240.319 10.8257C238.365 10.8257 236.719 11.4427 235.382 12.6768C234.045 13.8594 233.377 15.4277 233.377 17.3816C233.377 19.3354 234.045 20.9809 235.382 22.3178C236.719 23.6546 238.365 24.3231 240.319 24.3231H252.9C254.339 24.3231 255.676 24.6059 256.91 25.1715C258.196 25.6857 259.301 26.4312 260.227 27.4082C261.204 28.3337 261.949 29.4392 262.464 30.7247C263.029 31.9588 263.312 33.2956 263.312 34.7354C263.312 36.1751 263.029 37.5635 262.464 38.9003C261.949 40.1857 261.204 41.3169 260.227 42.2939C259.301 43.2709 258.196 44.0679 256.91 44.6849C255.676 45.2505 254.339 45.5333 252.9 45.5333H229.52V41.6769H252.9C254.648 41.6769 256.165 41.0084 257.45 39.6716C258.787 38.3347 259.456 36.6892 259.456 34.7354C259.456 32.7815 258.787 31.2131 257.45 30.0306C256.165 28.7965 254.648 28.1795 252.9 28.1795H240.319C238.776 28.1795 237.336 27.8967 235.999 27.3311C234.714 26.7141 233.583 25.9171 232.606 24.9401C231.629 23.9632 230.858 22.832 230.292 21.5465C229.778 20.2096 229.521 18.8214 229.521 17.3816C229.521 15.9419 229.778 14.605 230.292 13.3709C230.858 12.0855 231.629 10.9799 232.606 10.0544C233.583 9.07746 234.714 8.33189 235.999 7.8177C237.336 7.2521 238.776 6.96929 240.319 6.96929H263.312V10.8257H240.319Z" fill="#FAFAFA"/>
<path fill-rule="evenodd" clip-rule="evenodd" d="M295.65 39.0724C293.13 40.8206 290.225 41.6947 286.934 41.6948C284.98 41.6947 283.129 41.3606 281.381 40.6922C279.684 39.9723 278.142 39.0211 276.754 37.8385C275.365 36.6559 274.208 35.2419 273.283 33.5966C272.409 31.9512 271.818 30.1516 271.509 28.1976L306.216 28.1972V26.269C306.216 23.5952 305.702 21.0757 304.673 18.7105C303.696 16.3452 302.334 14.3142 300.585 12.6174C298.889 10.8692 296.858 9.50663 294.492 8.52967C292.127 7.50131 289.608 6.98714 286.934 6.98716C284.209 6.98721 281.664 7.5014 279.298 8.52974C276.984 9.50674 274.953 10.8694 273.205 12.6176C271.508 14.3144 270.146 16.3454 269.117 18.7107C268.141 21.0759 267.652 23.5954 267.652 26.2691C267.652 28.9943 268.141 31.5395 269.118 33.9047C270.146 36.2185 271.509 38.2495 273.205 39.9978C274.954 41.6946 276.985 43.0572 279.298 44.0856C281.664 45.0625 284.209 45.551 286.934 45.5511C289.042 45.551 291.073 45.2168 293.027 44.5484C294.981 43.8285 296.755 42.8773 298.349 41.6947C299.994 40.5121 301.408 39.0981 302.591 37.4527C303.825 35.8073 304.776 34.0077 305.445 32.0537L301.203 32.0538C300.02 34.9846 298.169 37.3241 295.65 39.0724ZM281.381 11.9241C283.129 11.2042 284.98 10.8442 286.934 10.8442C288.836 10.8442 290.661 11.2039 292.409 11.9237C294.157 12.5922 295.726 13.5177 297.114 14.7003C298.502 15.883 299.633 17.3227 300.508 19.0195C301.433 20.6649 302.05 22.4388 302.359 24.3413L271.508 24.3417C271.817 22.4392 272.408 20.6653 273.282 19.0199C274.208 17.323 275.365 15.8833 276.753 14.7007C278.141 13.5181 279.684 12.5925 281.381 11.9241Z" fill="#FAFAFA"/>
</svg>
