<svg width="100" height="100" viewBox="0 0 100 100" fill="none" xmlns="http://www.w3.org/2000/svg">
<path d="M8 2H92C95.3137 2 98 4.68629 98 8V92C98 95.3137 95.3137 98 92 98H8C4.68629 98 2 95.3137 2 92V8C2 4.68629 4.68629 2 8 2Z" fill="#6E0060" stroke="#F00172" stroke-width="4"/>
<path d="M63.7441 36.2001C65.6172 35.4002 67.6129 35 69.7303 35C71.8885 35 73.904 35.4002 75.7771 36.2001C77.6095 37.0001 79.2177 38.1003 80.6022 39.5003C81.946 40.8603 83.0253 42.4401 83.8397 44.24C84.6134 46.04 85 47.96 85 50C85 52.12 84.6134 54.0999 83.8397 55.9399C83.0253 57.7398 81.946 59.3196 80.6022 60.6796C79.2178 61.9996 77.6095 63.0594 75.7771 63.8594C73.904 64.6194 71.8885 64.9996 69.7303 64.9996C67.6129 64.9996 65.6172 64.6194 63.7441 63.8594C57.9893 61.3243 48.0005 50 48.0005 50C48.0005 50 39.3033 40.8336 34.9727 38.9602C33.5068 38.3202 31.9392 37.9999 30.2697 37.9999C28.6002 37.9999 27.0123 38.3202 25.5056 38.9602C24.0397 39.6002 22.7571 40.4599 21.6577 41.5399C20.5583 42.6199 19.6826 43.8803 19.0311 45.3202C18.3796 46.8002 18.0539 48.36 18.0539 50C18.0539 51.64 18.3796 53.1803 19.0311 54.6202C19.6826 56.1002 20.5583 57.3801 21.6577 58.4601C22.7571 59.54 24.0397 60.3998 25.5056 61.0398C27.0123 61.6798 28.6002 61.9996 30.2697 61.9996C31.9392 61.9996 33.5068 61.6798 34.9727 61.0398C37.5248 59.9073 41.184 56.6707 44.016 53.9624L46.1073 56.0482C42.8432 59.2017 38.9203 62.6394 36.2559 63.7999C34.3828 64.5998 32.3871 65 30.2697 65C28.1115 65 26.096 64.5998 24.2229 63.7999C22.3905 62.9999 20.7822 61.8997 19.3978 60.4997C18.054 59.1397 16.9747 57.5595 16.1603 55.7595C15.3866 53.9595 15 52.04 15 50C15 47.88 15.3866 45.9001 16.1603 44.0601C16.9747 42.2602 18.054 40.68 19.3978 39.32C20.7822 38 22.3905 36.9402 24.2229 36.1402C26.096 35.3802 28.1115 35.0004 30.2697 35.0004C32.3871 35.0004 34.3828 35.3802 36.2559 36.1402C42.0107 38.6752 51.9995 50 51.9995 50C51.9995 50 60.6967 59.1664 65.0273 61.0398C66.4932 61.6798 68.0608 62.0001 69.7303 62.0001C71.3998 62.0001 72.9877 61.6798 74.4943 61.0398C75.9602 60.3998 77.2428 59.54 78.3423 58.4601C79.4417 57.3801 80.3174 56.1197 80.9689 54.6798C81.6204 53.1998 81.946 51.64 81.946 50C81.946 48.36 81.6204 46.8197 80.9689 45.3798C80.3174 43.8998 79.4417 42.6199 78.3423 41.5399C77.2428 40.4599 75.9602 39.6002 74.4943 38.9602C72.9877 38.3202 71.3998 38.0004 69.7303 38.0004C68.0608 38.0004 66.4932 38.3202 65.0273 38.9602C62.4752 40.0927 58.816 43.3293 55.984 46.0376L53.8922 43.9518C57.1563 40.7983 61.0796 37.3606 63.7441 36.2001Z" fill="#D4D8E0" stroke="#D4D8E0" stroke-width="2.5" stroke-miterlimit="3.9"/>
</svg>
